HIERARCHY
ROOT root
{
	OFFSET	0.00	0.00	0.00
	CHANNELS 6 Xposition Yposition Zposition Zrotation Xrotation Yrotation
	JOINT back
	{
		OFFSET	 0.494691	-0.003158	-0.003178
		CHANNELS 3 Zrotation Xrotation Yrotation
		JOINT chest
		{
			OFFSET	 0.264817	 0.004177	 0.000000
			CHANNELS 3 Zrotation Xrotation Yrotation
			JOINT l_clavicle
			{
				OFFSET	 0.114550	 0.000716	-0.065320
				CHANNELS 3 Zrotation Xrotation Yrotation
				JOINT l_end_clavicle
				{
					OFFSET	 0.162817	-0.003802	 0.000068
					CHANNELS 3 Zrotation Xrotation Yrotation
					JOINT l_shoulder
					{
						OFFSET	 0.005413	-0.036488	 0.055972
						CHANNELS 3 Zrotation Xrotation Yrotation
						JOINT l_forearm
						{
							OFFSET	 0.293450	 0.004803	-0.037834
							CHANNELS 3 Zrotation Xrotation Yrotation
							JOINT l_end_wrist
							{
								OFFSET	 0.317021	-0.006522	 0.006333
								CHANNELS 3 Zrotation Xrotation Yrotation
								JOINT l_index1
								{
									OFFSET	 0.152748	-0.021000	-0.014320
									CHANNELS 3 Zrotation Xrotation Yrotation
									JOINT l_index2
									{
										OFFSET	 0.039283	 0.000000	 0.000000
										CHANNELS 3 Zrotation Xrotation Yrotation
										JOINT l_index3
										{
											OFFSET	 0.038151	 0.000000	 0.000000
											CHANNELS 3 Zrotation Xrotation Yrotation
											End Site
											{
												OFFSET	 0.038151	 0.000000	 0.000000
											}
										}
									}
								}
								JOINT l_middle1
								{
									OFFSET	 0.151723	 0.016194	-0.014667
									CHANNELS 3 Zrotation Xrotation Yrotation
									JOINT l_middle_2
									{
										OFFSET	 0.038269	 0.000000	 0.000000
										CHANNELS 3 Zrotation Xrotation Yrotation
										JOINT l_middle_3
										{
											OFFSET	 0.039743	 0.000000	 0.000000
											CHANNELS 3 Zrotation Xrotation Yrotation
											End Site
											{
												OFFSET	 0.039743	 0.000000	 0.000000
											}
										}
									}
								}
								JOINT l_pinky1
								{
									OFFSET	 0.117088	 0.077397	-0.013819
									CHANNELS 3 Zrotation Xrotation Yrotation
									JOINT l_pinky2
									{
										OFFSET	 0.028938	 0.000000	 0.000000
										CHANNELS 3 Zrotation Xrotation Yrotation
										JOINT l_pinky3
										{
											OFFSET	 0.027080	 0.000000	 0.000000
											CHANNELS 3 Zrotation Xrotation Yrotation
											End Site
											{
												OFFSET	 0.027080	 0.000000	 0.000000
											}
										}
									}
								}
								JOINT l_ring1
								{
									OFFSET	 0.137788	 0.047650	-0.014135
									CHANNELS 3 Zrotation Xrotation Yrotation
									JOINT l_ring2
									{
										OFFSET	 0.030749	 0.000000	 0.000000
										CHANNELS 3 Zrotation Xrotation Yrotation
										JOINT l_ring3
										{
											OFFSET	 0.032711	 0.000000	 0.000000
											CHANNELS 3 Zrotation Xrotation Yrotation
											End Site
											{
												OFFSET	 0.032711	 0.000000	 0.000000
											}
										}
									}
								}
								JOINT l_thumb1
								{
									OFFSET	 0.054053	-0.036728	-0.011261
									CHANNELS 3 Zrotation Xrotation Yrotation
									JOINT l_thumb_2
									{
										OFFSET	 0.051141	-0.005593	-0.001180
										CHANNELS 3 Zrotation Xrotation Yrotation
										JOINT l_thumb_3
										{
											OFFSET	 0.046422	-0.001905	 0.000191
											CHANNELS 3 Zrotation Xrotation Yrotation
											End Site
											{
												OFFSET	 0.046422	-0.001905	 0.000191
											}
										}
									}
								}
							}
						}
					}
				}
			}
			JOINT neck
			{
				OFFSET	 0.143918	 0.000470	 0.000000
				CHANNELS 3 Zrotation Xrotation Yrotation
				JOINT head
				{
					OFFSET	-0.005116	-0.004274	 0.061180
					CHANNELS 3 Zrotation Xrotation Yrotation
					End Site
					{
						OFFSET	-0.005116	-0.004274	 0.061180
					}
				}
			}
			JOINT r_clavicle
			{
				OFFSET	 0.114552	 0.000716	 0.065320
				CHANNELS 3 Zrotation Xrotation Yrotation
				JOINT r_end_clavicle
				{
					OFFSET	-0.162817	 0.003801	-0.000067
					CHANNELS 3 Zrotation Xrotation Yrotation
					JOINT r_shoulder
					{
						OFFSET	 0.002078	 0.026325	-0.022735
						CHANNELS 3 Zrotation Xrotation Yrotation
						JOINT r_forearm
						{
							OFFSET	-0.279905	-0.027029	 0.065297
							CHANNELS 3 Zrotation Xrotation Yrotation
							JOINT r_end_wrist
							{
								OFFSET	-0.317022	 0.006522	-0.006331
								CHANNELS 3 Zrotation Xrotation Yrotation
								JOINT r_index1
								{
									OFFSET	-0.152748	 0.021000	 0.014322
									CHANNELS 3 Zrotation Xrotation Yrotation
									JOINT r_index2
									{
										OFFSET	-0.039280	 0.000000	-0.000001
										CHANNELS 3 Zrotation Xrotation Yrotation
										JOINT r_index3
										{
											OFFSET	-0.038152	 0.000000	-0.000001
											CHANNELS 3 Zrotation Xrotation Yrotation
											End Site
											{
												OFFSET	-0.038152	 0.000000	-0.000001
											}
										}
									}
								}
								JOINT r_middle1
								{
									OFFSET	-0.151722	-0.016194	 0.014664
									CHANNELS 3 Zrotation Xrotation Yrotation
									JOINT r_middle_2
									{
										OFFSET	-0.038270	 0.000000	 0.000003
										CHANNELS 3 Zrotation Xrotation Yrotation
										JOINT r_middle_3
										{
											OFFSET	-0.039744	 0.000000	 0.000000
											CHANNELS 3 Zrotation Xrotation Yrotation
											End Site
											{
												OFFSET	-0.039744	 0.000000	 0.000000
											}
										}
									}
								}
								JOINT r_pinky1
								{
									OFFSET	-0.117090	-0.077397	 0.013818
									CHANNELS 3 Zrotation Xrotation Yrotation
									JOINT r_pinky2
									{
										OFFSET	-0.028938	 0.000000	 0.000000
										CHANNELS 3 Zrotation Xrotation Yrotation
										JOINT r_pinky3
										{
											OFFSET	-0.027078	-0.000001	 0.000000
											CHANNELS 3 Zrotation Xrotation Yrotation
											End Site
											{
												OFFSET	-0.027078	-0.000001	 0.000000
											}
										}
									}
								}
								JOINT r_ring1
								{
									OFFSET	-0.137790	-0.047650	 0.014136
									CHANNELS 3 Zrotation Xrotation Yrotation
									JOINT r_ring2
									{
										OFFSET	-0.030748	 0.000000	-0.000001
										CHANNELS 3 Zrotation Xrotation Yrotation
										JOINT r_ring3
										{
											OFFSET	-0.032707	-0.000001	 0.000003
											CHANNELS 3 Zrotation Xrotation Yrotation
											End Site
											{
												OFFSET	-0.032707	-0.000001	 0.000003
											}
										}
									}
								}
								JOINT r_thumb1
								{
									OFFSET	-0.054054	 0.036728	 0.011262
									CHANNELS 3 Zrotation Xrotation Yrotation
									JOINT r_thumb_2
									{
										OFFSET	-0.051140	 0.005594	 0.001177
										CHANNELS 3 Zrotation Xrotation Yrotation
										JOINT r_thumb_3
										{
											OFFSET	-0.046419	 0.001906	-0.000190
											CHANNELS 3 Zrotation Xrotation Yrotation
											End Site
											{
												OFFSET	-0.046419	 0.001906	-0.000190
											}
										}
									}
								}
							}
						}
					}
				}
			}
		}
	}
	JOINT Pelvis
	{
		OFFSET	 0.153808	-0.002934	-0.002617
		CHANNELS 3 Zrotation Xrotation Yrotation
		JOINT l_thigh
		{
			OFFSET	 0.145222	-0.127336	 0.003594
			CHANNELS 3 Zrotation Xrotation Yrotation
			End Site
			{
				OFFSET	 0.145222	-0.127336	 0.003594
			}
		}
		JOINT r_thigh
		{
			OFFSET	 0.143036	 0.137869	 0.004460
			CHANNELS 3 Zrotation Xrotation Yrotation
			End Site
			{
				OFFSET	 0.143036	 0.137869	 0.004460
			}
		}
	}
}
MOTION
Frames:    4
Frame Time: 0.01666667
-0.014172	-0.065373	-0.020248	 149.525200	-4.363976	-89.471050	-14.380360	 0.907527	 7.427144	-13.189770	 4.885136	 6.635862	-0.101224	 0.148070	 109.861200	-0.813313	 0.122417	-8.559153	-19.171340	-14.058610	 25.872420	-43.684310	 25.215490	 0.433227	-2.878099	 27.776000	-55.130500	-5.462176	-1.992690	 10.242770	 2.503307	-1.126933	 4.530149	 3.272056	-0.655163	-80.295190	 4.250556	 3.288841	 11.686940	-0.274741	 3.148211	 9.402254	 2.921087	 4.271523	-71.281690	 38.046800	 20.034690	 14.241990	-6.822121	 19.211520	 10.843110	-5.665420	 19.247840	-71.529140	 18.910480	 10.624250	 20.686040	-3.898658	 9.395153	 9.482653	-0.472508	 9.954329	-72.900050	-57.063770	-11.428450	 6.317852	 8.999681	-0.524442	 0.079947	-20.016050	-0.170796	 3.196878	 2.077539	 20.949860	 89.275220	-71.785420	-23.403570	-93.315740	 178.281300	 8.988390	 103.622000	-0.813313	 0.122417	-8.559153	 0.773579	-36.016500	 4.167343	-85.760380	-34.070260	-34.679540	-13.547540	-28.043890	-11.091750	-14.790370	-9.280809	 76.577080	 2.456317	-1.169714	 80.684740	 1.265047	 1.757715	-16.468080	-97.317930	-6.788625	-28.434800	-0.397902	 3.457274	-146.128600	 0.188712	 7.210938	-12.056590	-108.442000	-38.043900	-10.727830	-6.021856	 19.823110	 67.416630	-4.716576	 19.574120	-20.517600	-85.664540	-52.364330	 12.998010	-3.484296	 9.763653	 74.841640	-1.956071	 12.112190	-9.553795	 83.254800	-2.372895	-8.639630	 36.498650	-0.543483	 0.317072	 41.420040	-0.403802	 3.675102	 0.000000	 90.000000	 0.000000	 163.912800	 20.242550	 175.475600	-173.101200	 4.069191	-23.970030
-0.012956	-0.066285	-0.019860	 150.511000	-4.269997	-89.431110	-14.431540	 0.760365	 7.304980	-13.190410	 4.483694	 6.520750	-0.084832	 0.082859	 109.866200	-0.813313	 0.122417	-8.559153	-19.728810	-14.461810	 25.479350	-42.774450	 25.348880	 0.456297	-3.130831	 27.991360	-55.320330	-5.462201	-1.992592	 10.244460	 2.503307	-1.126933	 4.530149	 3.271767	-0.653068	-80.254390	 4.186675	 3.261043	 11.690080	-0.274736	 3.148211	 9.403668	 2.919231	 4.279402	-71.167620	 37.912750	 19.986550	 14.296320	-6.822121	 19.211520	 10.843110	-5.662467	 19.247580	-71.384060	 18.824050	 10.580640	 20.765560	-3.898658	 9.395153	 9.482653	-0.472607	 9.956635	-72.846950	-57.090290	-11.429960	 6.362526	 9.044457	-0.524575	 0.080317	-19.946660	-0.171325	 3.197226	 2.079197	 20.728470	 89.280950	-72.142180	-23.481720	-93.781400	 178.295600	 8.974669	 103.504000	-0.813313	 0.122417	-8.559153	 0.724223	-36.344910	 3.820336	-86.076930	-33.958400	-35.038410	-13.735580	-27.949320	-11.678290	-14.783450	-9.264915	 76.512140	 2.456317	-1.169714	 80.683620	 1.268561	 1.756549	-16.539580	-96.319950	-6.008853	-29.010200	-0.390736	 3.461831	-148.984200	 0.188712	 7.210938	-12.056590	-107.379100	-37.769920	-10.246340	-6.021856	 19.823110	 67.416630	-4.716576	 19.574120	-20.517600	-84.685940	-52.401750	 13.766800	-3.484296	 9.763653	 74.841640	-1.956071	 12.112190	-9.553795	 82.583720	-2.404645	-8.584357	 36.498650	-0.543483	 0.317072	 37.232760	-0.405588	 3.637103	 0.000000	 90.000000	 0.000000	 163.775500	 20.083690	 175.252900	-173.147000	 3.536960	-23.728000
-0.012060	-0.067471	-0.019440	 151.516000	-4.126625	-89.382880	-14.483170	 0.577651	 7.180132	-13.186300	 3.992839	 6.403111	-0.072275	 0.032933	 109.869900	-0.813313	 0.122417	-8.559153	-20.228350	-14.824370	 25.157080	-41.852890	 25.475940	 0.472395	-3.413986	 28.223140	-55.594580	-5.462222	-1.992498	 10.246070	 2.503307	-1.126933	 4.530149	 3.271531	-0.651368	-80.221280	 4.151265	 3.245620	 11.691530	-0.274733	 3.148212	 9.404997	 2.917714	 4.285792	-71.075060	 37.838930	 19.959930	 14.330540	-6.822121	 19.211520	 10.843110	-5.660061	 19.247380	-71.266160	 18.776970	 10.556870	 20.825680	-3.898658	 9.395153	 9.482653	-0.472687	 9.958499	-72.804030	-57.112770	-11.431370	 6.398585	 9.083384	-0.524676	 0.080641	-19.890530	-0.171748	 3.197509	 2.084306	 20.545580	 89.283550	-72.509170	-23.529440	-94.461870	 178.310900	 8.952168	 103.391800	-0.813313	 0.122417	-8.559153	 0.667715	-36.652190	 3.531802	-86.407820	-33.838270	-35.365560	-14.128100	-27.844010	-12.391890	-14.776630	-9.249265	 76.448190	 2.456317	-1.169712	 80.682510	 1.272018	 1.755397	-16.609950	-95.322300	-5.232438	-29.605280	-0.383431	 3.465985	-151.809900	 0.188712	 7.210938	-12.056590	-106.329100	-37.470090	-9.781777	-6.021856	 19.823110	 67.416630	-4.716576	 19.574120	-20.517600	-83.716630	-52.430880	 14.528650	-3.484296	 9.763653	 74.841640	-1.956071	 12.112190	-9.553795	 81.920510	-2.432558	-8.528846	 36.498650	-0.543483	 0.317072	 33.089870	-0.404627	 3.599476	 0.000000	 90.000000	 0.000000	 163.736400	 19.934030	 174.912300	-173.176800	 3.049141	-23.523480
-0.010951	-0.069625	-0.018855	 153.139000	-3.936239	-89.352270	-14.561360	 0.315187	 7.022335	-13.182950	 3.294703	 6.256162	-0.060935	-0.012147	 109.873400	-0.813313	 0.122417	-8.559153	-20.793350	-15.265090	 24.806920	-40.612340	 25.503620	 0.470253	-3.791514	 28.410220	-55.864270	-5.462250	-1.992390	 10.247940	 2.503307	-1.126933	 4.530149	 3.271336	-0.649968	-80.194000	 4.144481	 3.242635	 11.691180	-0.274728	 3.148213	 9.406547	 2.916456	 4.291055	-70.998780	 37.824840	 19.954740	 14.347100	-6.822121	 19.211520	 10.843110	-5.658078	 19.247210	-71.168620	 18.768770	 10.552830	 20.869480	-3.898658	 9.395153	 9.482653	-0.472754	 9.960019	-72.768980	-57.133510	-11.432910	 6.427851	 9.124690	-0.524794	 0.080983	-19.844670	-0.172100	 3.197736	 2.093752	 20.301290	 89.283880	-73.000430	-23.497980	-95.321820	 178.330900	 8.916023	 103.258900	-0.813313	 0.122417	-8.559153	 0.586623	-37.009870	 3.231433	-86.833900	-33.683810	-35.736100	-14.745140	-27.705330	-13.387980	-14.768290	-9.230243	 76.370510	 2.456317	-1.169711	 80.681180	 1.276217	 1.753991	-16.695470	-94.088230	-4.277715	-30.368200	-0.374233	 3.470567	-155.264600	 0.188712	 7.210938	-12.056590	-105.048800	-37.064800	-9.231389	-6.021856	 19.823110	 67.416630	-4.716576	 19.574120	-20.517600	-82.530640	-52.455770	 15.461160	-3.484296	 9.763653	 74.841640	-1.956071	 12.112190	-9.553795	 81.110520	-2.462044	-8.459775	 36.498650	-0.543483	 0.317072	 28.024420	-0.399753	 3.553720	 0.000000	 90.000000	 0.000000	 163.816300	 19.737920	 174.086500	-173.264400	 2.282582	-23.312210
